<svg width="51" height="47" viewBox="0 0 51 47" fill="none" xmlns="http://www.w3.org/2000/svg">
<path d="M25.5 46.5L21.875 43.25C17.6667 39.4583 14.1875 36.1875 11.4375 33.4375C8.6875 30.6875 6.5 28.2188 4.875 26.0312C3.25 23.8438 2.11458 21.8333 1.46875 20C0.822917 18.1667 0.5 16.2917 0.5 14.375C0.5 10.4583 1.8125 7.1875 4.4375 4.5625C7.0625 1.9375 10.3333 0.625 14.25 0.625C16.4167 0.625 18.4792 1.08333 20.4375 2C22.3958 2.91667 24.0833 4.20833 25.5 5.875C26.9167 4.20833 28.6042 2.91667 30.5625 2C32.5208 1.08333 34.5833 0.625 36.75 0.625C40.6667 0.625 43.9375 1.9375 46.5625 4.5625C49.1875 7.1875 50.5 10.4583 50.5 14.375C50.5 16.2917 50.1771 18.1667 49.5313 20C48.8854 21.8333 47.75 23.8438 46.125 26.0312C44.5 28.2188 42.3125 30.6875 39.5625 33.4375C36.8125 36.1875 33.3333 39.4583 29.125 43.25L25.5 46.5ZM25.5 39.75C29.5 36.1667 32.7917 33.0938 35.375 30.5313C37.9583 27.9688 40 25.7396 41.5 23.8438C43 21.9479 44.0417 20.2604 44.625 18.7812C45.2083 17.3021 45.5 15.8333 45.5 14.375C45.5 11.875 44.6667 9.79167 43 8.125C41.3333 6.45833 39.25 5.625 36.75 5.625C34.7917 5.625 32.9792 6.17708 31.3125 7.28125C29.6458 8.38542 28.5 9.79167 27.875 11.5H23.125C22.5 9.79167 21.3542 8.38542 19.6875 7.28125C18.0208 6.17708 16.2083 5.625 14.25 5.625C11.75 5.625 9.66667 6.45833 8 8.125C6.33333 9.79167 5.5 11.875 5.5 14.375C5.5 15.8333 5.79167 17.3021 6.375 18.7812C6.95833 20.2604 8 21.9479 9.5 23.8438C11 25.7396 13.0417 27.9688 15.625 30.5313C18.2083 33.0938 21.5 36.1667 25.5 39.75Z" fill="#007B83"/>
</svg>
