<svg width="40" height="53" viewBox="0 0 40 53" fill="none" xmlns="http://www.w3.org/2000/svg">
<path d="M14.1875 29.25L16.375 22.125L10.625 17.5H17.75L20 10.5L22.25 17.5H29.375L23.5625 22.125L25.75 29.25L20 24.8125L14.1875 29.25ZM5 52.5V33.1875C3.41667 31.4375 2.1875 29.4375 1.3125 27.1875C0.4375 24.9375 0 22.5417 0 20C0 14.4167 1.9375 9.6875 5.8125 5.8125C9.6875 1.9375 14.4167 0 20 0C25.5833 0 30.3125 1.9375 34.1875 5.8125C38.0625 9.6875 40 14.4167 40 20C40 22.5417 39.5625 24.9375 38.6875 27.1875C37.8125 29.4375 36.5833 31.4375 35 33.1875V52.5L20 47.5L5 52.5ZM20 35C24.1667 35 27.7083 33.5417 30.625 30.625C33.5417 27.7083 35 24.1667 35 20C35 15.8333 33.5417 12.2917 30.625 9.375C27.7083 6.45833 24.1667 5 20 5C15.8333 5 12.2917 6.45833 9.375 9.375C6.45833 12.2917 5 15.8333 5 20C5 24.1667 6.45833 27.7083 9.375 30.625C12.2917 33.5417 15.8333 35 20 35ZM10 45.0625L20 42.5L30 45.0625V37.3125C28.5417 38.1458 26.9688 38.8021 25.2812 39.2812C23.5938 39.7604 21.8333 40 20 40C18.1667 40 16.4062 39.7604 14.7188 39.2812C13.0313 38.8021 11.4583 38.1458 10 37.3125V45.0625Z" fill="#007B83"/>
</svg>
