<svg width="30" height="30" viewBox="0 0 30 30" fill="none" xmlns="http://www.w3.org/2000/svg">
<rect x="0.5" y="0.5" width="29" height="29" rx="4.5" fill="#F9CF4F" fill-opacity="0.2"/>
<rect x="0.5" y="0.5" width="29" height="29" rx="4.5" stroke="#2A9D8F"/>
<mask id="mask0_1487_6367" style="mask-type:alpha" maskUnits="userSpaceOnUse" x="3" y="3" width="24" height="24">
<rect x="3" y="3" width="24" height="24" fill="#D9D9D9"/>
</mask>
<g mask="url(#mask0_1487_6367)">
<path d="M13 25V23H26V25H13ZM14 22C14 20.65 14.425 19.4708 15.275 18.4625C16.125 17.4542 17.2 16.8333 18.5 16.6V15.975C18.5 15.6917 18.5958 15.4542 18.7875 15.2625C18.9792 15.0708 19.2167 14.975 19.5 14.975C19.7833 14.975 20.0208 15.0708 20.2125 15.2625C20.4042 15.4542 20.5 15.6917 20.5 15.975V16.6C21.7833 16.8333 22.8542 17.4542 23.7125 18.4625C24.5708 19.4708 25 20.65 25 22H14ZM4 16H8V5H4V16ZM10 16H11.975L19.025 13.375C19.3083 13.2583 19.5417 13.0708 19.725 12.8125C19.9083 12.5542 20 12.2667 20 11.95C20 11.6833 19.9083 11.4583 19.725 11.275C19.5417 11.0917 19.3167 11 19.05 11H16L14.25 11.675L13.9 10.75L16 10H23C23.5333 10 24 9.80833 24.4 9.425C24.8 9.04167 25 8.56667 25 8L17 5L10 6.95V16Z" fill="#007B83"/>
</g>
</svg>
