<svg width="30" height="30" viewBox="0 0 30 30" fill="none" xmlns="http://www.w3.org/2000/svg">
<rect x="0.5" y="0.5" width="29" height="29" rx="4.5" fill="#F9CF4F" fill-opacity="0.2"/>
<rect x="0.5" y="0.5" width="29" height="29" rx="4.5" stroke="#2A9D8F"/>
<mask id="mask0_1487_6393" style="mask-type:alpha" maskUnits="userSpaceOnUse" x="3" y="1" width="25" height="25">
<rect x="3.36328" y="1.61035" width="24" height="24" fill="#D9D9D9"/>
</mask>
<g mask="url(#mask0_1487_6393)">
<path d="M7.36328 23.6104C6.81328 23.6104 6.34245 23.4145 5.95078 23.0229C5.55911 22.6312 5.36328 22.1604 5.36328 21.6104V10.6104C5.36328 10.0604 5.55911 9.58952 5.95078 9.19785C6.34245 8.80618 6.81328 8.61035 7.36328 8.61035H12.3633V5.61035C12.3633 5.06035 12.5591 4.58952 12.9508 4.19785C13.3424 3.80618 13.8133 3.61035 14.3633 3.61035H16.3633C16.9133 3.61035 17.3841 3.80618 17.7758 4.19785C18.1674 4.58952 18.3633 5.06035 18.3633 5.61035V8.61035H23.3633C23.9133 8.61035 24.3841 8.80618 24.7758 9.19785C25.1674 9.58952 25.3633 10.0604 25.3633 10.6104V21.6104C25.3633 22.1604 25.1674 22.6312 24.7758 23.0229C24.3841 23.4145 23.9133 23.6104 23.3633 23.6104H7.36328ZM7.36328 21.6104H23.3633V10.6104H18.3633C18.3633 11.1604 18.1674 11.6312 17.7758 12.0229C17.3841 12.4145 16.9133 12.6104 16.3633 12.6104H14.3633C13.8133 12.6104 13.3424 12.4145 12.9508 12.0229C12.5591 11.6312 12.3633 11.1604 12.3633 10.6104H7.36328V21.6104ZM9.36328 19.6104H15.3633V19.1604C15.3633 18.877 15.2841 18.6145 15.1258 18.3729C14.9674 18.1312 14.7466 17.9437 14.4633 17.8104C14.1299 17.6604 13.7924 17.5479 13.4508 17.4729C13.1091 17.3979 12.7466 17.3604 12.3633 17.3604C11.9799 17.3604 11.6174 17.3979 11.2758 17.4729C10.9341 17.5479 10.5966 17.6604 10.2633 17.8104C9.97995 17.9437 9.75911 18.1312 9.60078 18.3729C9.44245 18.6145 9.36328 18.877 9.36328 19.1604V19.6104ZM17.3633 18.1104H21.3633V16.6104H17.3633V18.1104ZM12.3633 16.6104C12.7799 16.6104 13.1341 16.4645 13.4258 16.1729C13.7174 15.8812 13.8633 15.527 13.8633 15.1104C13.8633 14.6937 13.7174 14.3395 13.4258 14.0479C13.1341 13.7562 12.7799 13.6104 12.3633 13.6104C11.9466 13.6104 11.5924 13.7562 11.3008 14.0479C11.0091 14.3395 10.8633 14.6937 10.8633 15.1104C10.8633 15.527 11.0091 15.8812 11.3008 16.1729C11.5924 16.4645 11.9466 16.6104 12.3633 16.6104ZM17.3633 15.1104H21.3633V13.6104H17.3633V15.1104ZM14.3633 10.6104H16.3633V5.61035H14.3633V10.6104Z" fill="#007B83"/>
</g>
</svg>
