<svg width="30" height="30" viewBox="0 0 30 30" fill="none" xmlns="http://www.w3.org/2000/svg">
<rect x="0.5" y="0.5" width="29" height="29" rx="4.5" fill="#F9CF4F" fill-opacity="0.2"/>
<rect x="0.5" y="0.5" width="29" height="29" rx="4.5" stroke="#2A9D8F"/>
<mask id="mask0_1487_6361" style="mask-type:alpha" maskUnits="userSpaceOnUse" x="3" y="3" width="24" height="24">
<rect x="3" y="3" width="24" height="24" fill="#D9D9D9"/>
</mask>
<g mask="url(#mask0_1487_6361)">
<path d="M15 15C15.55 15 16.0208 14.8042 16.4125 14.4125C16.8042 14.0208 17 13.55 17 13C17 12.45 16.8042 11.9792 16.4125 11.5875C16.0208 11.1958 15.55 11 15 11C14.45 11 13.9792 11.1958 13.5875 11.5875C13.1958 11.9792 13 12.45 13 13C13 13.55 13.1958 14.0208 13.5875 14.4125C13.9792 14.8042 14.45 15 15 15ZM15 25C12.3167 22.7167 10.3125 20.5958 8.9875 18.6375C7.6625 16.6792 7 14.8667 7 13.2C7 10.7 7.80417 8.70833 9.4125 7.225C11.0208 5.74167 12.8833 5 15 5C17.1167 5 18.9792 5.74167 20.5875 7.225C22.1958 8.70833 23 10.7 23 13.2C23 14.8667 22.3375 16.6792 21.0125 18.6375C19.6875 20.5958 17.6833 22.7167 15 25Z" fill="#007B83"/>
</g>
</svg>
