<svg width="30" height="30" viewBox="0 0 30 30" fill="none" xmlns="http://www.w3.org/2000/svg">
<rect x="0.5" y="0.5" width="29" height="29" rx="4.5" fill="#A7E8B7" fill-opacity="0.26"/>
<rect x="0.5" y="0.5" width="29" height="29" rx="4.5" stroke="#2A9D8F"/>
<mask id="mask0_1487_6373" style="mask-type:alpha" maskUnits="userSpaceOnUse" x="3" y="3" width="24" height="25">
<rect x="3" y="3.5" width="24" height="24" fill="#D9D9D9"/>
</mask>
<g mask="url(#mask0_1487_6373)">
<path d="M10.625 9.9L13.425 6.275C13.625 6.00833 13.8625 5.8125 14.1375 5.6875C14.4125 5.5625 14.7 5.5 15 5.5C15.3 5.5 15.5875 5.5625 15.8625 5.6875C16.1375 5.8125 16.375 6.00833 16.575 6.275L19.375 9.9L23.625 11.325C24.0583 11.4583 24.4 11.7042 24.65 12.0625C24.9 12.4208 25.025 12.8167 25.025 13.25C25.025 13.45 24.9958 13.65 24.9375 13.85C24.8792 14.05 24.7833 14.2417 24.65 14.425L21.9 18.325L22 22.425C22.0167 23.0083 21.825 23.5 21.425 23.9C21.025 24.3 20.5583 24.5 20.025 24.5C19.9917 24.5 19.8083 24.475 19.475 24.425L15 23.175L10.525 24.425C10.4417 24.4583 10.35 24.4792 10.25 24.4875C10.15 24.4958 10.0583 24.5 9.975 24.5C9.44167 24.5 8.975 24.3 8.575 23.9C8.175 23.5 7.98333 23.0083 8 22.425L8.1 18.3L5.375 14.425C5.24167 14.2417 5.14583 14.05 5.0875 13.85C5.02917 13.65 5 13.45 5 13.25C5 12.8333 5.12083 12.4458 5.3625 12.0875C5.60417 11.7292 5.94167 11.475 6.375 11.325L10.625 9.9Z" fill="#F1C40F"/>
</g>
</svg>
