<svg width="20" height="17" viewBox="0 0 20 17" fill="none" xmlns="http://www.w3.org/2000/svg">
<path d="M16.0859 6.64575H19.5859V8.64575H17.5859V14.1458C17.5859 14.8458 17.3443 15.4374 16.8609 15.9208C16.3776 16.4041 15.7859 16.6458 15.0859 16.6458C14.3859 16.6458 13.7943 16.4041 13.3109 15.9208C12.8276 15.4374 12.5859 14.8458 12.5859 14.1458C12.5859 13.4458 12.8276 12.8541 13.3109 12.3708C13.7943 11.8874 14.3859 11.6458 15.0859 11.6458C15.2193 11.6458 15.3693 11.6583 15.5359 11.6833C15.7026 11.7083 15.8859 11.7624 16.0859 11.8458V6.64575ZM0.585938 16.6458V13.8458C0.585938 13.2624 0.731771 12.7374 1.02344 12.2708C1.3151 11.8041 1.7026 11.4458 2.18594 11.1958C3.21927 10.6791 4.26927 10.2916 5.33594 10.0333C6.4026 9.77492 7.48594 9.64575 8.58594 9.64575C9.28594 9.64575 9.98177 9.69992 10.6734 9.80825C11.3651 9.91659 12.0609 10.0791 12.7609 10.2958C12.4276 10.4958 12.1276 10.7374 11.8609 11.0208C11.5943 11.3041 11.3609 11.6124 11.1609 11.9458C10.7276 11.8458 10.2984 11.7708 9.87344 11.7208C9.44844 11.6708 9.01927 11.6458 8.58594 11.6458C7.63594 11.6458 6.7026 11.7624 5.78594 11.9958C4.86927 12.2291 3.96927 12.5624 3.08594 12.9958C2.93594 13.0791 2.8151 13.1958 2.72344 13.3458C2.63177 13.4958 2.58594 13.6624 2.58594 13.8458V14.6458H10.6109C10.6443 14.9791 10.7234 15.3124 10.8484 15.6458C10.9734 15.9791 11.1443 16.3124 11.3609 16.6458H0.585938ZM8.58594 8.64575C7.48594 8.64575 6.54427 8.25409 5.76094 7.47075C4.9776 6.68742 4.58594 5.74575 4.58594 4.64575C4.58594 3.54575 4.9776 2.60409 5.76094 1.82075C6.54427 1.03742 7.48594 0.645752 8.58594 0.645752C9.68594 0.645752 10.6276 1.03742 11.4109 1.82075C12.1943 2.60409 12.5859 3.54575 12.5859 4.64575C12.5859 5.74575 12.1943 6.68742 11.4109 7.47075C10.6276 8.25409 9.68594 8.64575 8.58594 8.64575ZM8.58594 6.64575C9.13594 6.64575 9.60677 6.44992 9.99844 6.05825C10.3901 5.66658 10.5859 5.19575 10.5859 4.64575C10.5859 4.09575 10.3901 3.62492 9.99844 3.23325C9.60677 2.84159 9.13594 2.64575 8.58594 2.64575C8.03594 2.64575 7.5651 2.84159 7.17344 3.23325C6.78177 3.62492 6.58594 4.09575 6.58594 4.64575C6.58594 5.19575 6.78177 5.66658 7.17344 6.05825C7.5651 6.44992 8.03594 6.64575 8.58594 6.64575Z" fill="#007B83"/>
</svg>
