<svg width="18" height="21" viewBox="0 0 18 21" fill="none" xmlns="http://www.w3.org/2000/svg">
<path d="M13.0605 19.8172C12.8772 20.0005 12.6647 20.1422 12.423 20.2422C12.1814 20.3422 11.9272 20.3922 11.6605 20.3922C11.3939 20.3922 11.1355 20.3422 10.8855 20.2422C10.6355 20.1422 10.4189 20.0005 10.2355 19.8172L8.83555 18.4172C8.65221 18.2339 8.51471 18.0297 8.42305 17.8047C8.33138 17.5797 8.27721 17.3505 8.26055 17.1172C8.24388 16.8839 8.27305 16.6505 8.34805 16.4172C8.42305 16.1839 8.53555 15.9672 8.68555 15.7672L8.83555 15.5672L0.685547 3.91721L4.58555 0.0172119L17.3105 12.7422C17.4939 12.9255 17.6355 13.138 17.7355 13.3797C17.8355 13.6214 17.8855 13.8755 17.8855 14.1422C17.8855 14.4089 17.8355 14.6672 17.7355 14.9172C17.6355 15.1672 17.4939 15.3839 17.3105 15.5672L13.0605 19.8172ZM10.2605 14.1422L13.0855 11.3422L4.58555 2.84221L3.28555 4.14221L10.2605 14.1422ZM11.6605 18.3922L15.8855 14.1672L14.4855 12.7422L10.2355 16.9922L11.6605 18.3922Z" fill="#007B83"/>
</svg>
