<svg width="25" height="24" viewBox="0 0 25 24" fill="none" xmlns="http://www.w3.org/2000/svg">
<mask id="mask0_290_449" style="mask-type:alpha" maskUnits="userSpaceOnUse" x="0" y="0" width="25" height="24">
<rect x="0.400024" width="24" height="24" fill="#D9D9D9"/>
</mask>
<g mask="url(#mask0_290_449)">
<path d="M12.4 7C12.6834 7 12.9209 6.90417 13.1125 6.7125C13.3042 6.52083 13.4 6.28333 13.4 6C13.4 5.71667 13.3042 5.47917 13.1125 5.2875C12.9209 5.09583 12.6834 5 12.4 5C12.1167 5 11.8792 5.09583 11.6875 5.2875C11.4959 5.47917 11.4 5.71667 11.4 6C11.4 6.28333 11.4959 6.52083 11.6875 6.7125C11.8792 6.90417 12.1167 7 12.4 7ZM11.4 15H13.4V9H11.4V15ZM2.40002 22V4C2.40002 3.45 2.59586 2.97917 2.98752 2.5875C3.37919 2.19583 3.85002 2 4.40002 2H20.4C20.95 2 21.4209 2.19583 21.8125 2.5875C22.2042 2.97917 22.4 3.45 22.4 4V16C22.4 16.55 22.2042 17.0208 21.8125 17.4125C21.4209 17.8042 20.95 18 20.4 18H6.40002L2.40002 22ZM5.55002 16H20.4V4H4.40002V17.125L5.55002 16Z" fill="#484C52"/>
</g>
</svg>
