<svg width="19" height="23" viewBox="0 0 19 23" fill="none" xmlns="http://www.w3.org/2000/svg">
<path d="M0.883789 22.5422V15.5422C0.883789 14.1589 1.37129 12.9797 2.34629 12.0047C3.32129 11.0297 4.50046 10.5422 5.88379 10.5422H6.88379V2.54224C6.88379 1.99224 7.07962 1.5214 7.47129 1.12974C7.86296 0.73807 8.33379 0.542236 8.88379 0.542236H10.8838C11.4338 0.542236 11.9046 0.73807 12.2963 1.12974C12.688 1.5214 12.8838 1.99224 12.8838 2.54224V10.5422H13.8838C15.2671 10.5422 16.4463 11.0297 17.4213 12.0047C18.3963 12.9797 18.8838 14.1589 18.8838 15.5422V22.5422H0.883789ZM2.88379 20.5422H4.88379V17.5422C4.88379 17.2589 4.97962 17.0214 5.17129 16.8297C5.36296 16.6381 5.60046 16.5422 5.88379 16.5422C6.16712 16.5422 6.40462 16.6381 6.59629 16.8297C6.78796 17.0214 6.88379 17.2589 6.88379 17.5422V20.5422H8.88379V17.5422C8.88379 17.2589 8.97962 17.0214 9.17129 16.8297C9.36296 16.6381 9.60046 16.5422 9.88379 16.5422C10.1671 16.5422 10.4046 16.6381 10.5963 16.8297C10.788 17.0214 10.8838 17.2589 10.8838 17.5422V20.5422H12.8838V17.5422C12.8838 17.2589 12.9796 17.0214 13.1713 16.8297C13.363 16.6381 13.6005 16.5422 13.8838 16.5422C14.1671 16.5422 14.4046 16.6381 14.5963 16.8297C14.788 17.0214 14.8838 17.2589 14.8838 17.5422V20.5422H16.8838V15.5422C16.8838 14.7089 16.5921 14.0006 16.0088 13.4172C15.4255 12.8339 14.7171 12.5422 13.8838 12.5422H5.88379C5.05046 12.5422 4.34212 12.8339 3.75879 13.4172C3.17546 14.0006 2.88379 14.7089 2.88379 15.5422V20.5422ZM10.8838 10.5422V2.54224H8.88379V10.5422H10.8838Z" fill="#007B83"/>
</svg>
