<svg width="25" height="25" viewBox="0 0 25 25" fill="none" xmlns="http://www.w3.org/2000/svg">
<mask id="mask0_1352_2686" style="mask-type:alpha" maskUnits="userSpaceOnUse" x="0" y="0" width="25" height="25">
<rect x="0.788086" y="0.0109863" width="24" height="24" fill="#D9D9D9"/>
</mask>
<g mask="url(#mask0_1352_2686)">
<path d="M21.4385 9.38606L20.0385 7.98606L20.7885 7.21106L17.5885 4.01106L16.8135 4.76106L15.3885 3.33606L16.1385 2.56106C16.5218 2.17772 16.9968 1.99022 17.5635 1.99856C18.1301 2.00689 18.6051 2.20272 18.9885 2.58606L22.2135 5.81106C22.5968 6.19439 22.7885 6.66522 22.7885 7.22356C22.7885 7.78189 22.5968 8.25272 22.2135 8.63606L21.4385 9.38606ZM9.43848 21.4111C9.05514 21.7944 8.58431 21.9861 8.02598 21.9861C7.46764 21.9861 6.99681 21.7944 6.61348 21.4111L3.38848 18.1861C3.00514 17.8027 2.81348 17.3319 2.81348 16.7736C2.81348 16.2152 3.00514 15.7444 3.38848 15.3611L4.13848 14.6111L5.56348 16.0361L4.78848 16.7861L8.01348 20.0111L8.76348 19.2361L10.1885 20.6611L9.43848 21.4111ZM19.3635 13.0111L20.7885 11.5861L13.2135 4.01106L11.7885 5.43606L19.3635 13.0111ZM12.3635 20.0111L13.7885 18.5611L6.23848 11.0111L4.78848 12.4361L12.3635 20.0111ZM12.2135 14.1611L14.9635 11.4361L13.3635 9.83606L10.6385 12.5861L12.2135 14.1611ZM13.7885 21.4111C13.4051 21.7944 12.9301 21.9861 12.3635 21.9861C11.7968 21.9861 11.3218 21.7944 10.9385 21.4111L3.38848 13.8611C3.00514 13.4777 2.81348 13.0027 2.81348 12.4361C2.81348 11.8694 3.00514 11.3944 3.38848 11.0111L4.81348 9.58606C5.19681 9.20272 5.66764 9.01106 6.22598 9.01106C6.78431 9.01106 7.25514 9.20272 7.63848 9.58606L9.21348 11.1611L11.9635 8.41106L10.3885 6.86106C10.0051 6.47772 9.81348 6.00272 9.81348 5.43606C9.81348 4.86939 10.0051 4.39439 10.3885 4.01106L11.8135 2.58606C12.1968 2.20272 12.6676 2.01106 13.226 2.01106C13.7843 2.01106 14.2551 2.20272 14.6385 2.58606L22.2135 10.1611C22.5968 10.5444 22.7885 11.0152 22.7885 11.5736C22.7885 12.1319 22.5968 12.6027 22.2135 12.9861L20.7885 14.4111C20.4051 14.7944 19.9301 14.9861 19.3635 14.9861C18.7968 14.9861 18.3218 14.7944 17.9385 14.4111L16.3885 12.8361L13.6385 15.5861L15.2135 17.1611C15.5968 17.5444 15.7885 18.0152 15.7885 18.5736C15.7885 19.1319 15.5968 19.6027 15.2135 19.9861L13.7885 21.4111Z" fill="#007B83"/>
</g>
</svg>
