<svg width="15" height="20" viewBox="0 0 15 20" fill="none" xmlns="http://www.w3.org/2000/svg">
<path d="M7.59863 19.2737C5.64863 19.2737 3.99447 18.5946 2.63613 17.2362C1.2778 15.8779 0.598633 14.2237 0.598633 12.2737C0.598633 10.7071 1.06113 9.30289 1.98613 8.06122C2.91113 6.81955 4.12363 5.98205 5.62363 5.54872C5.2903 5.46539 4.9653 5.34455 4.64863 5.18622C4.33197 5.02789 4.04863 4.82372 3.79863 4.57372C3.24863 4.02372 2.89447 3.36955 2.73613 2.61122C2.5778 1.85289 2.5403 1.08205 2.62363 0.298719C3.40697 0.215385 4.1778 0.252885 4.93613 0.411219C5.69447 0.569552 6.34863 0.923719 6.89863 1.47372C7.28197 1.85705 7.56113 2.29039 7.73613 2.77372C7.91113 3.25705 8.02363 3.76539 8.07363 4.29872C8.2903 3.78205 8.5528 3.29455 8.86113 2.83622C9.16947 2.37789 9.5153 1.95705 9.89863 1.57372C10.082 1.39039 10.3153 1.29872 10.5986 1.29872C10.882 1.29872 11.1153 1.39039 11.2986 1.57372C11.482 1.75705 11.5736 1.99039 11.5736 2.27372C11.5736 2.55705 11.482 2.79039 11.2986 2.97372C10.932 3.34039 10.607 3.74455 10.3236 4.18622C10.0403 4.62789 9.83197 5.09872 9.69863 5.59872C11.1653 6.06539 12.3486 6.91122 13.2486 8.13622C14.1486 9.36122 14.5986 10.7404 14.5986 12.2737C14.5986 14.2237 13.9195 15.8779 12.5611 17.2362C11.2028 18.5946 9.54863 19.2737 7.59863 19.2737ZM7.59863 17.2737C8.98197 17.2737 10.1611 16.7862 11.1361 15.8112C12.1111 14.8362 12.5986 13.6571 12.5986 12.2737C12.5986 10.8904 12.1111 9.71122 11.1361 8.73622C10.1611 7.76122 8.98197 7.27372 7.59863 7.27372C6.2153 7.27372 5.03613 7.76122 4.06113 8.73622C3.08613 9.71122 2.59863 10.8904 2.59863 12.2737C2.59863 13.6571 3.08613 14.8362 4.06113 15.8112C5.03613 16.7862 6.2153 17.2737 7.59863 17.2737Z" fill="#007B83"/>
</svg>
