<svg width="19" height="19" viewBox="0 0 19 19" fill="none" xmlns="http://www.w3.org/2000/svg">
<path d="M9.58594 18.5172C8.51927 18.5172 7.5651 18.2422 6.72344 17.6922C5.88177 17.1422 5.19427 16.4172 4.66094 15.5172L2.28594 16.8672L1.28594 15.1422L3.86094 13.6422C3.81094 13.4589 3.76927 13.2714 3.73594 13.0797C3.7026 12.888 3.66927 12.7005 3.63594 12.5172H0.585938V10.5172H3.63594C3.66927 10.3172 3.7026 10.1214 3.73594 9.92971C3.76927 9.73805 3.81094 9.55055 3.86094 9.36721L1.28594 7.86721L2.28594 6.14221L4.63594 7.51721C4.76927 7.28388 4.92344 7.05471 5.09844 6.82971C5.27344 6.60471 5.4526 6.40055 5.63594 6.21721C5.6026 6.10055 5.58594 5.98388 5.58594 5.86721V5.51721C5.58594 5.11721 5.64427 4.73388 5.76094 4.36721C5.8776 4.00055 6.03594 3.65888 6.23594 3.34221L4.58594 1.69221L5.98594 0.267212L7.73594 1.96721C8.01927 1.81721 8.3151 1.70471 8.62344 1.62971C8.93177 1.55471 9.2526 1.51721 9.58594 1.51721C9.91927 1.51721 10.2443 1.55888 10.5609 1.64221C10.8776 1.72555 11.1776 1.84221 11.4609 1.99221L13.1859 0.267212L14.5859 1.69221L12.9359 3.34221C13.1359 3.65888 13.2901 4.00055 13.3984 4.36721C13.5068 4.73388 13.5609 5.11721 13.5609 5.51721V5.85471C13.5609 5.96305 13.5443 6.07555 13.5109 6.19221C13.6943 6.37555 13.8734 6.58388 14.0484 6.81721C14.2234 7.05055 14.3776 7.28388 14.5109 7.51721L16.8859 6.16721L17.8859 7.89221L15.2859 9.36721C15.3359 9.55055 15.3818 9.73805 15.4234 9.92971C15.4651 10.1214 15.5026 10.3172 15.5359 10.5172H18.5859V12.5172H15.5359C15.5026 12.7172 15.4693 12.913 15.4359 13.1047C15.4026 13.2964 15.3609 13.4839 15.3109 13.6672L17.8859 15.1672L16.8859 16.8922L14.5109 15.5172C13.9776 16.4172 13.2901 17.1422 12.4484 17.6922C11.6068 18.2422 10.6526 18.5172 9.58594 18.5172ZM7.68594 4.86721C7.96927 4.75055 8.27344 4.66305 8.59844 4.60471C8.92344 4.54638 9.2526 4.51721 9.58594 4.51721C9.91927 4.51721 10.2401 4.54221 10.5484 4.59221C10.8568 4.64221 11.1526 4.72555 11.4359 4.84221C11.3026 4.45888 11.0693 4.14221 10.7359 3.89221C10.4026 3.64221 10.0193 3.51721 9.58594 3.51721C9.1526 3.51721 8.76094 3.64638 8.41094 3.90471C8.06094 4.16305 7.81927 4.48388 7.68594 4.86721ZM9.58594 16.5172C10.8026 16.5172 11.7734 16.0089 12.4984 14.9922C13.2234 13.9755 13.5859 12.8172 13.5859 11.5172C13.5859 10.3505 13.2484 9.22554 12.5734 8.14221C11.8984 7.05888 10.9026 6.51721 9.58594 6.51721C8.28594 6.51721 7.29427 7.05471 6.61094 8.12971C5.9276 9.20471 5.58594 10.3339 5.58594 11.5172C5.58594 12.8172 5.94844 13.9755 6.67344 14.9922C7.39844 16.0089 8.36927 16.5172 9.58594 16.5172ZM8.58594 14.5172V8.51721H10.5859V14.5172H8.58594Z" fill="#007B83"/>
</svg>
