<svg width="25" height="25" viewBox="0 0 25 25" fill="none" xmlns="http://www.w3.org/2000/svg">
<mask id="mask0_1352_2662" style="mask-type:alpha" maskUnits="userSpaceOnUse" x="0" y="0" width="25" height="25">
<rect x="0.844727" y="0.949951" width="24" height="24" fill="#D9D9D9"/>
</mask>
<g mask="url(#mask0_1352_2662)">
<path d="M12.8447 18.45C14.0947 18.45 15.1572 18.0125 16.0322 17.1375C16.9072 16.2625 17.3447 15.2 17.3447 13.95C17.3447 12.7 16.9072 11.6375 16.0322 10.7625C15.1572 9.88745 14.0947 9.44995 12.8447 9.44995C11.5947 9.44995 10.5322 9.88745 9.65723 10.7625C8.78223 11.6375 8.34473 12.7 8.34473 13.95C8.34473 15.2 8.78223 16.2625 9.65723 17.1375C10.5322 18.0125 11.5947 18.45 12.8447 18.45ZM12.8447 16.45C12.1447 16.45 11.5531 16.2083 11.0697 15.725C10.5864 15.2416 10.3447 14.65 10.3447 13.95C10.3447 13.25 10.5864 12.6583 11.0697 12.175C11.5531 11.6916 12.1447 11.45 12.8447 11.45C13.5447 11.45 14.1364 11.6916 14.6197 12.175C15.1031 12.6583 15.3447 13.25 15.3447 13.95C15.3447 14.65 15.1031 15.2416 14.6197 15.725C14.1364 16.2083 13.5447 16.45 12.8447 16.45ZM4.84473 21.95C4.29473 21.95 3.82389 21.7541 3.43223 21.3625C3.04056 20.9708 2.84473 20.5 2.84473 19.95V7.94995C2.84473 7.39995 3.04056 6.92912 3.43223 6.53745C3.82389 6.14578 4.29473 5.94995 4.84473 5.94995H7.99473L9.84473 3.94995H15.8447L17.6947 5.94995H20.8447C21.3947 5.94995 21.8656 6.14578 22.2572 6.53745C22.6489 6.92912 22.8447 7.39995 22.8447 7.94995V19.95C22.8447 20.5 22.6489 20.9708 22.2572 21.3625C21.8656 21.7541 21.3947 21.95 20.8447 21.95H4.84473ZM4.84473 19.95H20.8447V7.94995H16.7947L14.9697 5.94995H10.7197L8.89473 7.94995H4.84473V19.95Z" fill="#007B83"/>
</g>
</svg>
