<svg width="17" height="21" viewBox="0 0 17 21" fill="none" xmlns="http://www.w3.org/2000/svg">
<path d="M15.8264 7.79082L12.3014 4.26582L10.1764 6.36582L8.05137 4.26582L10.8764 1.41582C11.0764 1.21582 11.3014 1.06999 11.5514 0.97832C11.8014 0.886654 12.0514 0.84082 12.3014 0.84082C12.568 0.84082 12.8222 0.886654 13.0639 0.97832C13.3055 1.06999 13.518 1.21582 13.7014 1.41582L15.8264 3.54082C16.1264 3.82415 16.3472 4.15332 16.4889 4.52832C16.6305 4.90332 16.7014 5.28249 16.7014 5.66582C16.7014 6.04915 16.6305 6.42415 16.4889 6.79082C16.3472 7.15749 16.1264 7.49082 15.8264 7.79082ZM2.05137 12.3908C1.75137 12.0908 1.60137 11.7367 1.60137 11.3283C1.60137 10.92 1.75137 10.5658 2.05137 10.2658L4.50137 7.79082L6.62637 9.91582L4.15137 12.3908C3.86803 12.6908 3.5222 12.8408 3.11387 12.8408C2.70553 12.8408 2.35137 12.6908 2.05137 12.3908ZM0.976367 19.8158C0.793034 19.6158 0.651367 19.395 0.551367 19.1533C0.451367 18.9117 0.401367 18.6575 0.401367 18.3908C0.401367 18.1242 0.447201 17.87 0.538867 17.6283C0.630534 17.3867 0.776367 17.1658 0.976367 16.9658L8.05137 9.91582L4.87637 6.71582C4.57637 6.43249 4.42637 6.08665 4.42637 5.67832C4.42637 5.26999 4.57637 4.91582 4.87637 4.61582C5.1597 4.31582 5.5097 4.16582 5.92637 4.16582C6.34303 4.16582 6.70137 4.31582 7.00137 4.61582L10.1764 7.79082L11.6014 6.36582L14.4014 9.21582C14.6014 9.41582 14.7014 9.64915 14.7014 9.91582C14.7014 10.1825 14.6014 10.4158 14.4014 10.6158C14.2014 10.8158 13.968 10.9158 13.7014 10.9158C13.4347 10.9158 13.2014 10.8158 13.0014 10.6158L3.80137 19.8158C3.60137 20.0158 3.38053 20.1617 3.13887 20.2533C2.8972 20.345 2.65137 20.3908 2.40137 20.3908C2.15137 20.3908 1.90137 20.3408 1.65137 20.2408C1.40137 20.1408 1.17637 19.9992 0.976367 19.8158Z" fill="#007B83"/>
</svg>
