<svg width="21" height="21" viewBox="0 0 21 21" fill="none" xmlns="http://www.w3.org/2000/svg">
<path d="M10.8838 17.373C10.8838 15.7064 10.3005 14.2897 9.13379 13.123C7.96712 11.9564 6.55046 11.373 4.88379 11.373C4.88379 13.0397 5.46712 14.4564 6.63379 15.623C7.80046 16.7897 9.21712 17.373 10.8838 17.373ZM10.8838 12.323C11.3171 12.323 11.6838 12.173 11.9838 11.873C12.2838 11.573 12.4338 11.2064 12.4338 10.773V10.623C12.5671 10.723 12.7046 10.798 12.8463 10.848C12.988 10.898 13.1505 10.923 13.3338 10.923C13.7671 10.923 14.1338 10.773 14.4338 10.473C14.7338 10.173 14.8838 9.80638 14.8838 9.37305C14.8838 9.03971 14.8046 8.74805 14.6463 8.49805C14.488 8.24805 14.2671 8.07305 13.9838 7.97305C14.2671 7.87305 14.488 7.69805 14.6463 7.44805C14.8046 7.19805 14.8838 6.90638 14.8838 6.57305C14.8838 6.13971 14.7338 5.77305 14.4338 5.47305C14.1338 5.17305 13.7671 5.02305 13.3338 5.02305C13.1505 5.02305 12.988 5.04805 12.8463 5.09805C12.7046 5.14805 12.5671 5.22305 12.4338 5.32305V5.17305C12.4338 4.73971 12.2838 4.37305 11.9838 4.07305C11.6838 3.77305 11.3171 3.62305 10.8838 3.62305C10.4505 3.62305 10.0838 3.77305 9.78379 4.07305C9.48379 4.37305 9.33379 4.73971 9.33379 5.17305V5.32305C9.20046 5.22305 9.06296 5.14805 8.92129 5.09805C8.77962 5.04805 8.61712 5.02305 8.43379 5.02305C8.00046 5.02305 7.63379 5.17305 7.33379 5.47305C7.03379 5.77305 6.88379 6.13971 6.88379 6.57305C6.88379 6.90638 6.96296 7.19805 7.12129 7.44805C7.27962 7.69805 7.50046 7.87305 7.78379 7.97305C7.50046 8.07305 7.27962 8.24805 7.12129 8.49805C6.96296 8.74805 6.88379 9.03971 6.88379 9.37305C6.88379 9.80638 7.03379 10.173 7.33379 10.473C7.63379 10.773 8.00046 10.923 8.43379 10.923C8.61712 10.923 8.77962 10.898 8.92129 10.848C9.06296 10.798 9.20046 10.723 9.33379 10.623V10.773C9.33379 11.2064 9.48379 11.573 9.78379 11.873C10.0838 12.173 10.4505 12.323 10.8838 12.323ZM10.8838 9.52305C10.4505 9.52305 10.0838 9.37721 9.78379 9.08555C9.48379 8.79388 9.33379 8.42305 9.33379 7.97305C9.33379 7.53971 9.48379 7.17305 9.78379 6.87305C10.0838 6.57305 10.4505 6.42305 10.8838 6.42305C11.3171 6.42305 11.6838 6.57305 11.9838 6.87305C12.2838 7.17305 12.4338 7.53971 12.4338 7.97305C12.4338 8.42305 12.2838 8.79388 11.9838 9.08555C11.6838 9.37721 11.3171 9.52305 10.8838 9.52305ZM10.8838 17.373C12.5505 17.373 13.9671 16.7897 15.1338 15.623C16.3005 14.4564 16.8838 13.0397 16.8838 11.373C15.2171 11.373 13.8005 11.9564 12.6338 13.123C11.4671 14.2897 10.8838 15.7064 10.8838 17.373ZM2.88379 20.373C2.33379 20.373 1.86296 20.1772 1.47129 19.7855C1.07962 19.3939 0.883789 18.923 0.883789 18.373V2.37305C0.883789 1.82305 1.07962 1.35221 1.47129 0.960547C1.86296 0.56888 2.33379 0.373047 2.88379 0.373047H18.8838C19.4338 0.373047 19.9046 0.56888 20.2963 0.960547C20.688 1.35221 20.8838 1.82305 20.8838 2.37305V18.373C20.8838 18.923 20.688 19.3939 20.2963 19.7855C19.9046 20.1772 19.4338 20.373 18.8838 20.373H2.88379ZM2.88379 18.373H18.8838V2.37305H2.88379V18.373Z" fill="#007B83"/>
</svg>
