<svg width="22" height="17" viewBox="0 0 22 17" fill="none" xmlns="http://www.w3.org/2000/svg">
<path d="M4 16.9136L0 7.65877L5 5.13474V0.0866699H9V5.13474L14 7.65877L10 16.9136H4ZM16 16.9136C15.7167 16.9136 15.4792 16.8329 15.2875 16.6717C15.0958 16.5104 15 16.3106 15 16.0722C15 15.8338 15.0958 15.634 15.2875 15.4728C15.4792 15.3115 15.7167 15.2309 16 15.2309H19V13.5482H16C15.7167 13.5482 15.4792 13.4676 15.2875 13.3063C15.0958 13.145 15 12.9452 15 12.7068C15 12.4685 15.0958 12.2686 15.2875 12.1074C15.4792 11.9461 15.7167 11.8655 16 11.8655H19V10.1828H16C15.7167 10.1828 15.4792 10.1022 15.2875 9.94092C15.0958 9.77966 15 9.57984 15 9.34146C15 9.10308 15.0958 8.90326 15.2875 8.742C15.4792 8.58074 15.7167 8.50012 16 8.50012H19V6.81743H16C15.7167 6.81743 15.4792 6.7368 15.2875 6.57554C15.0958 6.41428 15 6.21446 15 5.97608C15 5.7377 15.0958 5.53788 15.2875 5.37662C15.4792 5.21537 15.7167 5.13474 16 5.13474H19V3.45205H16C15.7167 3.45205 15.4792 3.37142 15.2875 3.21016C15.0958 3.0489 15 2.84908 15 2.6107C15 2.37232 15.0958 2.1725 15.2875 2.01125C15.4792 1.84999 15.7167 1.76936 16 1.76936H20C20.55 1.76936 21.0208 1.93412 21.4125 2.26365C21.8042 2.59318 22 2.98931 22 3.45205V15.2309C22 15.6936 21.8042 16.0897 21.4125 16.4193C21.0208 16.7488 20.55 16.9136 20 16.9136H16ZM5.4 15.2309H8.6L11.55 8.37391L8.45 6.81743H5.55L2.45 8.37391L5.4 15.2309Z" fill="#2A9D8F"/>
</svg>
