<svg width="24" height="25" viewBox="0 0 24 25" fill="none" xmlns="http://www.w3.org/2000/svg">
<mask id="mask0_895_4679" style="mask-type:alpha" maskUnits="userSpaceOnUse" x="0" y="0" width="24" height="25">
<rect y="0.5" width="24" height="24" fill="#D9D9D9"/>
</mask>
<g mask="url(#mask0_895_4679)">
<path d="M10.0502 23.5C9.5502 23.5 9.08353 23.3875 8.6502 23.1625C8.21686 22.9375 7.85853 22.6167 7.5752 22.2L1.2002 12.875L1.8002 12.3C2.11686 11.9833 2.49186 11.8 2.9252 11.75C3.35853 11.7 3.7502 11.8 4.1002 12.05L7.0002 14.075V4.5C7.0002 4.21667 7.09603 3.97917 7.2877 3.7875C7.47936 3.59583 7.71686 3.5 8.0002 3.5C8.28353 3.5 8.52103 3.59583 8.7127 3.7875C8.90436 3.97917 9.0002 4.21667 9.0002 4.5V17.925L5.3002 15.325L9.2252 21.05C9.30853 21.1833 9.4252 21.2917 9.5752 21.375C9.7252 21.4583 9.88353 21.5 10.0502 21.5H17.0002C17.5502 21.5 18.021 21.3042 18.4127 20.9125C18.8044 20.5208 19.0002 20.05 19.0002 19.5V5.5C19.0002 5.21667 19.096 4.97917 19.2877 4.7875C19.4794 4.59583 19.7169 4.5 20.0002 4.5C20.2835 4.5 20.521 4.59583 20.7127 4.7875C20.9044 4.97917 21.0002 5.21667 21.0002 5.5V19.5C21.0002 20.6 20.6085 21.5417 19.8252 22.325C19.0419 23.1083 18.1002 23.5 17.0002 23.5H10.0502ZM11.0002 12.5V2.5C11.0002 2.21667 11.096 1.97917 11.2877 1.7875C11.4794 1.59583 11.7169 1.5 12.0002 1.5C12.2835 1.5 12.521 1.59583 12.7127 1.7875C12.9044 1.97917 13.0002 2.21667 13.0002 2.5V12.5H11.0002ZM15.0002 12.5V3.5C15.0002 3.21667 15.096 2.97917 15.2877 2.7875C15.4794 2.59583 15.7169 2.5 16.0002 2.5C16.2835 2.5 16.521 2.59583 16.7127 2.7875C16.9044 2.97917 17.0002 3.21667 17.0002 3.5V12.5H15.0002Z" fill="#2A9D8F"/>
</g>
</svg>
