<svg width="24" height="25" viewBox="0 0 24 25" fill="none" xmlns="http://www.w3.org/2000/svg">
<mask id="mask0_895_4806" style="mask-type:alpha" maskUnits="userSpaceOnUse" x="0" y="0" width="24" height="25">
<rect y="0.5" width="24" height="24" fill="#D9D9D9"/>
</mask>
<g mask="url(#mask0_895_4806)">
<path d="M16 23.5C15.7167 23.5 15.4792 23.4042 15.2875 23.2125C15.0958 23.0208 15 22.7833 15 22.5C15 22.2167 15.0958 21.9792 15.2875 21.7875C15.4792 21.5958 15.7167 21.5 16 21.5H19V20.5H16C15.7167 20.5 15.4792 20.4042 15.2875 20.2125C15.0958 20.0208 15 19.7833 15 19.5C15 19.2167 15.0958 18.9792 15.2875 18.7875C15.4792 18.5958 15.7167 18.5 16 18.5H19V17.5H16C15.7167 17.5 15.4792 17.4042 15.2875 17.2125C15.0958 17.0208 15 16.7833 15 16.5C15 16.2167 15.0958 15.9792 15.2875 15.7875C15.4792 15.5958 15.7167 15.5 16 15.5H19V14.5H16C15.7167 14.5 15.4792 14.4042 15.2875 14.2125C15.0958 14.0208 15 13.7833 15 13.5C15 13.2167 15.0958 12.9792 15.2875 12.7875C15.4792 12.5958 15.7167 12.5 16 12.5H19V11.5H16C15.7167 11.5 15.4792 11.4042 15.2875 11.2125C15.0958 11.0208 15 10.7833 15 10.5C15 10.2167 15.0958 9.97917 15.2875 9.7875C15.4792 9.59583 15.7167 9.5 16 9.5H19V8.5H16C15.7167 8.5 15.4792 8.40417 15.2875 8.2125C15.0958 8.02083 15 7.78333 15 7.5C15 7.21667 15.0958 6.97917 15.2875 6.7875C15.4792 6.59583 15.7167 6.5 16 6.5H20C20.55 6.5 21.0208 6.69583 21.4125 7.0875C21.8042 7.47917 22 7.95 22 8.5V21.5C22 22.05 21.8042 22.5208 21.4125 22.9125C21.0208 23.3042 20.55 23.5 20 23.5H16ZM8 15.5C9.1 15.5 10.0417 14.9583 10.825 13.875C11.6083 12.7917 12 11.5 12 10C12 8.5 11.6083 7.20833 10.825 6.125C10.0417 5.04167 9.1 4.5 8 4.5C6.9 4.5 5.95833 5.04167 5.175 6.125C4.39167 7.20833 4 8.5 4 10C4 11.5 4.39167 12.7917 5.175 13.875C5.95833 14.9583 6.9 15.5 8 15.5ZM8 23.5C7.2 23.5 6.54167 23.2042 6.025 22.6125C5.50833 22.0208 5.30833 21.325 5.425 20.525L5.825 17C4.69167 16.45 3.77083 15.5458 3.0625 14.2875C2.35417 13.0292 2 11.6 2 10C2 7.91667 2.58333 6.14583 3.75 4.6875C4.91667 3.22917 6.33333 2.5 8 2.5C9.66667 2.5 11.0833 3.22917 12.25 4.6875C13.4167 6.14583 14 7.91667 14 10C14 11.6 13.6458 13.0292 12.9375 14.2875C12.2292 15.5458 11.3083 16.45 10.175 17L10.575 20.525C10.6917 21.325 10.4917 22.0208 9.975 22.6125C9.45833 23.2042 8.8 23.5 8 23.5Z" fill="#2A9D8F"/>
</g>
</svg>
